<svg xmlns="http://www.w3.org/2000/svg" viewBox="0 0 512 512" fill="none">
  <defs>
    <linearGradient id="bg" x1="0%" y1="0%" x2="0%" y2="100%">
      <stop offset="0%" stop-color="#EAF7EE"/>
      <stop offset="100%" stop-color="#C8EDD3"/>
    </linearGradient>
    <linearGradient id="wave1" x1="0%" y1="0%" x2="100%" y2="0%">
      <stop offset="0%" stop-color="#1E6B1E"/>
      <stop offset="100%" stop-color="#2D9C2D"/>
    </linearGradient>
    <linearGradient id="wave2" x1="0%" y1="0%" x2="100%" y2="0%">
      <stop offset="0%" stop-color="#2D9C2D"/>
      <stop offset="100%" stop-color="#4DBF56"/>
    </linearGradient>
    <linearGradient id="wave3" x1="0%" y1="0%" x2="100%" y2="0%">
      <stop offset="0%" stop-color="#4DBF56"/>
      <stop offset="100%" stop-color="#72D67A"/>
    </linearGradient>
    <clipPath id="lens-clip">
      <circle cx="220" cy="220" r="131"/>
    </clipPath>
  </defs>

  <!-- Rounded-square background tile (iOS/Android style) -->
  <rect x="0" y="0" width="512" height="512" rx="112" ry="112" fill="url(#bg)"/>

  <!-- Magnifying glass handle — rotated around lens centre so it sits perpendicular to ring -->
  <rect x="345" y="200" width="150" height="40" rx="20" ry="20"
        transform="rotate(45, 220, 220)"
        fill="#1E6B1E"/>

  <!-- Magnifying glass ring -->
  <circle cx="220" cy="220" r="150" stroke="#1E6B1E" stroke-width="38" fill="none"/>

  <!-- PoolScan waves rotated 90° CCW around lens centre (220,220): (x,y)→(440-y, x) -->
  <g clip-path="url(#lens-clip)" stroke-linecap="round" fill="none" stroke-width="22">
    <path d="M 175 130 Q 200 170, 175 220 T 175 310" stroke="url(#wave1)"/>
    <path d="M 215 130 Q 240 170, 215 220 T 215 310" stroke="url(#wave2)"/>
    <path d="M 255 130 Q 280 170, 255 220 T 255 310" stroke="url(#wave3)"/>
  </g>
</svg>
